<svg id="Layer_1" enable-background="new 0 0 512 512" height="512" viewBox="0 0 512 512" width="512" xmlns="http://www.w3.org/2000/svg"><path d="m400.7 22.8-25.4 48.2-.3.6 12.2 5.7-50.8 89 10 8.7 108.6-118.4z" fill="#8ecc3e"/><path d="m411.3 29.4-10.6-6.6-25.4 48.2-.3.6 11.4 5.3z" fill="#74a534"/><path d="m363.6 177.6-11.6 4.3 97.6-69.9 40.4-19.5 11 35.3z" fill="#a6d63c"/><path d="m490 92.5-40.4 19.5-97.6 69.9 39.3-14.3 101.8-65.3z" fill="#7eb239"/><path d="m329.4 156.6 4.4-13 26.8-78.8-8.6-4.1-28.2 76.5-4.4 12c1.1 9.1 10.2 21.1 20 27.7-5.4-6.5-9.3-14-10-20.3z" fill="#8ecc3e"/><path d="m241.6 132c6.4-1.2 12.8-1.9 19.3-1.8 6.1 0 12.2.5 18.2 1.4 5.7 1.2 11.3 2.9 16.6 5.1l.1.1c-6.5 9.3 1.9 30.1 19.7 47.9s38.6 26.2 47.9 19.7c2.2 5.4 4 11 5.2 16.8 3.2 22.3 3 58.6-27.1 79.9-1.8 1.3-3.7 2.5-5.7 3.7l-192.1 116-110.4 66.4c-13.2 7.3-27.7-7.2-20.4-20.4l45.7-75.7 136.9-226.9c11.6-19.8 28.9-28.7 46.1-32.2z" fill="#ff9c31"/><path d="m145.6 419.5 6.4-12.6 120.4-236c4.8-10.1 12.1-18.8 21.3-25.3-.3-3.1.5-6.2 2.2-8.8l-.1-.1c-5.4-2.2-11-3.9-16.6-5.1-6-.9-12.1-1.3-18.2-1.4-6.5 0-13 .6-19.3 1.8-17.2 3.4-34.5 12.4-46 32.3l-137 226.9-45.7 75.7c-7.3 13.2 7.2 27.7 20.4 20.4l110.4-66.6z" fill="#ed8115"/><path d="m363.4 204.4c-9.3 6.5-30.1-1.9-47.9-19.7s-26.2-38.6-19.7-47.9c.3-.5.7-.9 1.1-1.3 5.2-5.2 15.4-4.1 26.8 1.8l-4.4 12c1.6 13.1 19.6 32 32.6 32.6l11.6-4.2c5.3 10.9 6.2 20.6 1.2 25.6-.3.4-.8.7-1.3 1.1z" fill="#ffb743"/><g fill="#d87012"><path id="XMLID_12_" d="m343 295.2c-25.8-6.4-43.8-19-58.5-40.8 0 0 0-.1-.1-.1-1.9-2.7-5.6-3.4-8.3-1.6-2.7 1.9-3.4 5.6-1.6 8.3 15.4 22.9 34.1 36.7 60.1 44.3l1.2-.7c2-1.2 3.9-2.4 5.7-3.7 1.7-1.2 3.2-2.4 4.7-3.7-.7-.9-1.8-1.7-3.2-2z"/><path id="XMLID_14_" d="m254.2 197.3c1.1 1.1 2.6 1.7 4.2 1.7 1.6 0 3.2-.7 4.3-1.8 2.3-2.4 2.2-6.2-.2-8.5-14.1-13.5-20.8-37.6-15.2-54.8v-.1c.3-.9.3-1.8.2-2.7-2 .3-4 .6-5.9 1-2.2.4-4.5 1-6.7 1.6-5.1 21 2.8 47.7 19.3 63.6z"/><path id="XMLID_16_" d="m67.6 420.3c1.1.9 2.4 1.4 3.8 1.4 1.8 0 3.5-.8 4.6-2.2 2.1-2.6 1.7-6.3-.8-8.4-7-5.7-10.3-12-10.5-19.9 0-2.1-1.2-4-2.9-5l-3.1 5.1-5 8.2c1.9 7.9 6.5 14.8 13.9 20.8z"/><path id="XMLID_18_" d="m143.9 414.6c-9-.2-17.9-7.3-22.8-13.3-2.1-2.6-5.9-2.9-8.4-.8-2.6 2.1-2.9 5.9-.8 8.4 5.4 6.6 14.1 13.7 24 16.5l7.9-4.8 5.2-3.1c-1.1-1.7-3-2.9-5.1-2.9z"/><path id="XMLID_19_" d="m209.8 289.5c-13.6-11.3-23.9-26.1-29.9-42.8v-.1c-1.1-3.1-4.5-4.8-7.7-3.6-3.1 1.1-4.8 4.5-3.6 7.7 6.7 18.7 18.3 35.3 33.6 48 1.1.9 2.4 1.4 3.8 1.4 1.8 0 3.5-.8 4.6-2.2 2.1-2.5 1.8-6.2-.8-8.4z"/></g><path d="m432.8 77-6.8-6.8-89.6 96.1 50.8-89-12.2-5.7-23-10.9-32.6 88.5c1.6 13 19.6 32 32.6 32.6l97.6-69.9 10.6-7.6z" fill="#619329"/></svg>