<svg id="Layer_1" height="512" viewBox="0 0 512 512" width="512" xmlns="http://www.w3.org/2000/svg" data-name="Layer 1"><path d="m264.83 107.1a212.05 212.05 0 0 0 -15.58 39.96l-.01.05a115.721 115.721 0 0 0 -36.19-5.81c-3.62 0-7.22.17-10.77.51a140.993 140.993 0 0 1 -50.33-130.81 141.132 141.132 0 0 1 112.88 96.1z" fill="#76b035"/><path d="m222.88 43.77a140.413 140.413 0 0 0 -70.93-32.77 141.176 141.176 0 0 0 -.62 38.527 140.2 140.2 0 0 1 56.385 29.748 141.7 141.7 0 0 1 41.951 63.33c-.673 1.316-1.338 2.661-2 4.022.523.164 1.052.312 1.573.483l.01-.05a212.05 212.05 0 0 1 15.58-39.96 141.691 141.691 0 0 0 -41.949-63.33z" fill="#689331"/><path d="m264.84 151.75a115.736 115.736 0 0 1 34.11-5.14c78.47 0 142.08 79.33 142.08 177.19s-63.61 177.2-142.08 177.2a117.1 117.1 0 0 1 -49.65-11.12h-.01a116.033 116.033 0 0 1 -36.24 5.81c-78.47 0-142.08-79.33-142.08-177.19 0-93.34 57.87-169.83 131.31-176.69 3.55-.34 7.15-.51 10.77-.51a115.721 115.721 0 0 1 36.19 5.81 121.547 121.547 0 0 1 13.47 5.32c.7-.24 1.42-.46 2.13-.68z" fill="#d17522"/><path d="m161.865 317.955c0-76.991 36.227-142.976 87.725-170.725-.117-.038-.233-.082-.35-.12a115.721 115.721 0 0 0 -36.19-5.81c-3.62 0-7.22.17-10.77.51-73.44 6.86-131.31 83.35-131.31 176.69 0 97.86 63.61 177.19 142.08 177.19a116.033 116.033 0 0 0 36.24-5.81h.01a120.583 120.583 0 0 0 19.583 7.135c-61.512-20.301-107.018-92.767-107.018-179.06z" fill="#ea8939"/><g opacity=".5"><path d="m145.725 387.032c-47.274-91.108-34.648-192.423 27.066-232.943l30.964-12.4c-.492.04-.985.076-1.475.123-73.44 6.858-131.31 83.348-131.31 176.688 0 97.86 63.61 177.19 142.08 177.19a115.877 115.877 0 0 0 33.94-5.105c-39.39-19.355-76.3-55.438-101.265-103.553z" fill="#a56934"/></g><path d="m264.83 107.1c17.79-34.83 39.37-53.79 39.37-53.79l26.8 15.35s-44.25 27.8-66.16 83.09c-.71.22-1.43.44-2.13.68a121.547 121.547 0 0 0 -13.47-5.32l.01-.05a212.05 212.05 0 0 1 15.58-39.96z" fill="#97c447"/><g opacity=".8"><path d="m120.793 410.572a6 6 0 0 1 -5.481-3.555 209.027 209.027 0 0 1 -13.593-42.089 225.56 225.56 0 0 1 -4.789-46.428 6 6 0 0 1 12 0 213.518 213.518 0 0 0 4.531 43.953 197 197 0 0 0 12.808 39.671 6 6 0 0 1 -5.476 8.448z" fill="#e9e9e9"/></g></svg>