<svg id="Layer_1" height="512" viewBox="0 0 512 512" width="512" xmlns="http://www.w3.org/2000/svg" data-name="Layer 1"><path d="m375.6 86.61-12.1 4.56a88.544 88.544 0 0 1 -104.85-33.7l1.34-.67a88.568 88.568 0 0 1 102.33 16.53z" fill="#c2e542"/><path d="m362.32 73.33a88.574 88.574 0 0 0 -15.431-12.3 88.593 88.593 0 0 1 -70.04 16.317 88.56 88.56 0 0 0 86.651 13.823l12.1-4.56z" fill="#b0cc3a"/><path d="m255.578 99.571a6.107 6.107 0 0 1 -.859-.062 6 6 0 0 1 -5.088-6.79c5.212-36.368.791-54.528-10.425-79.239a6 6 0 0 1 10.928-4.96c11.939 26.307 16.977 46.815 11.375 85.9a6 6 0 0 1 -5.931 5.151z" fill="#63591a"/><path d="m384.91 342.11c9.92 93.12-68.96 158.89-129.34 158.89-58.6 0-129.33-65.24-129.33-158.89 0-73.4 49.85-118.4 56.45-152.99 9.89-51.83 34.19-95.55 72.88-95.55 42.9 0 66.15 43.21 72.88 95.55 6.28 48.83 48.37 77 56.46 152.99z" fill="#4b651a"/><path d="m247.046 359.71c-33.731-65.19-10.136-128.066-20.171-161.82-10.392-34.961-12.88-69.638-2.082-93.595-21.126 16.078-35.163 48.454-42.1 84.825-6.6 34.59-56.45 79.59-56.45 152.99 0 93.65 70.73 158.89 129.33 158.89 33.369 0 72.381-20.1 98.939-53.785-40.79-10.44-82.5-39.256-107.466-87.505z" fill="#5c7720"/><g opacity=".6"><path d="m162.163 368.491a6 6 0 0 1 -5.955-5.325 187.708 187.708 0 0 1 -1.178-21.056c0-39.5 14.142-70.924 26.463-93.887a6 6 0 0 1 10.574 5.674c-11.657 21.725-25.037 51.384-25.037 88.213a175.753 175.753 0 0 0 1.1 19.7 6.008 6.008 0 0 1 -5.969 6.676z" fill="#e9e9e9"/></g><g opacity=".6"><path d="m175 417.341a6 6 0 0 1 -5.521-3.646c-1.818-4.258-3.5-8.654-4.986-13.064a6 6 0 0 1 11.368-3.842c1.392 4.117 2.958 8.22 4.654 12.195a6 6 0 0 1 -5.515 8.357z" fill="#e9e9e9"/></g></svg>