<svg id="Layer_1" height="512" viewBox="0 0 512 512" width="512" xmlns="http://www.w3.org/2000/svg" data-name="Layer 1"><path d="m262.53 115.53h.01c5.33 10.5 17.79 12.76 30.07 11.98a113.369 113.369 0 0 0 30.92-7c-17.23 21.94-4.95 39.08-4.95 39.08a64.512 64.512 0 0 0 -20.38-3.18c-17.32 0-33.74 13.46-47.66 12.2-15.79-1.44-22.54-17.42-46.55-20.87 20.43-8.05 16.59-41.81 3.47-66.86-9.22-17.62-23.04-30.93-36.24-27.96 0 0-14.33 13.62-21.52-12.26-2.85-10.26-2.68-17.25-1.64-21.83a10.055 10.055 0 0 1 9.81-7.83c36.6.19 65.45 30.67 84.8 63.09h.01a259.114 259.114 0 0 1 19.85 41.44z" fill="#8fba39"/><path d="m323.53 120.51a113.369 113.369 0 0 1 -30.92 7c-12.28.78-24.74-1.48-30.07-11.98h-.01a259.114 259.114 0 0 0 -19.85-41.44h-.01c-19.35-32.42-48.2-62.9-84.8-63.09a10.055 10.055 0 0 0 -9.81 7.83 26.993 26.993 0 0 0 -.523 3.288c33.38 3.642 59.858 32.319 77.991 62.7h.01a259.114 259.114 0 0 1 19.85 41.44h.01c5.331 10.5 17.79 12.76 30.07 11.98a113.369 113.369 0 0 0 30.92-7c-7.61 9.689-9.459 18.439-9.158 25.193.324-.009.647-.023.97-.023a64.512 64.512 0 0 1 20.38 3.18s-12.28-17.138 4.95-39.078z" fill="#667f29"/><path d="m181.34 473.75c-44.81 5.17-85.43-65.08-103.79-156.84-18.44-92.2-38.6-169.82 37.34-188.59a32.091 32.091 0 0 1 8.74-.78c15.44.44 37.38 9.01 50.72 25.41-22.37 14.36-31.85 52.23-35.2 81.05-3.32 28.58-2.53 52.79-2.53 86.07 0 69.12 20.37 128.11 44.72 153.68z" fill="#136b0a"/><path d="m181.34 473.75c-24.35-25.57-44.72-84.56-44.72-153.68 0-33.28-.79-57.49 2.53-86.07 3.35-28.82 12.83-66.69 35.2-81.05a36.4 36.4 0 0 1 20.07-5.86 67.083 67.083 0 0 1 9.57.65c24.01 3.45 30.76 19.43 46.55 20.87 13.92 1.26 30.34-12.2 47.66-12.2a64.512 64.512 0 0 1 20.38 3.18 63.042 63.042 0 0 1 26.89 17.88c25.74 28.27 43.46 66.24 22.45 154.06-4.75 19.89-24.7 61.95-30.89 78.41-12.16 32.35-17.84 56.86-27.15 72.26-7.44 12.32-17.2 18.8-34.45 18.8-14.59 0-22.71-11.98-39.24-14.27-13.67-1.89-17.28.62-29.14.61-8.6-.01-17.39-4.85-25.71-13.59z" fill="#078407"/><g opacity=".6"><path d="m172.664 305.714c-29.049-66.965-57.488-127.651-60.455-176.685-72.763 19.934-52.877 96.788-34.659 187.881 18.36 91.76 58.98 162.01 103.79 156.84 8.32 8.74 17.11 13.58 25.71 13.59 11.86.01 15.47-2.5 29.14-.61 16.53 2.29 24.65 14.27 39.24 14.27 16.148 0 25.732-5.68 32.994-16.512-47.655-23.588-98.011-91.774-135.76-178.774z" fill="#45a534"/></g><path d="m417.06 129.88c52.03 13.48 34.37 103.55 16.05 195.21-14.12 70.59-32.29 132.23-76.2 151.77-17.29 7.7-34.6 6.97-47.03 5.34 9.31-15.4 14.99-39.91 27.15-72.26 6.19-16.46 26.14-58.52 30.89-78.41 21.01-87.82 3.29-125.79-22.45-154.06a63.042 63.042 0 0 0 -26.89-17.88c16.15-19.86 82.97-33.41 97.56-29.94.31.07.62.15.92.23z" fill="#136b0a"/><path d="m417.14 129.55-.08.33c-.3-.08-.61-.16-.92-.23-14.59-3.47-81.41 10.08-97.56 29.94 0 0-12.28-17.14 4.95-39.08a113.369 113.369 0 0 1 -30.92 7v-.01c1.12-7.92 6.66-15.92 14.84-22.63 13.98-11.45 35.65-19.13 56.17-16.22 29.33 4.17 51.64 21.76 53.52 40.9z" fill="#078407"/><path d="m306.3 104.33 1.15.54c-8.18 6.71-13.72 14.71-14.84 22.63v.01c-12.28.78-24.74-1.48-30.07-11.98h-.01a259.114 259.114 0 0 0 -19.85-41.44c23.23-2.32 51.31 1.15 63.62 30.24z" fill="#147f09"/><path d="m207.46 80.88c13.12 25.05 16.96 58.81-3.47 66.86a67.083 67.083 0 0 0 -9.57-.65 36.4 36.4 0 0 0 -20.07 5.86c-13.34-16.4-35.28-24.97-50.72-25.41v-.04c8.74-26.6 43.71-37.79 83.83-46.62z" fill="#078407"/><g opacity=".6"><path d="m173.774 345.67a6 6 0 0 1 -5.984-5.664c-.371-6.611-.56-13.318-.56-19.936 0-5.535-.021-10.82-.042-15.917-.031-7.421-.06-14.431-.018-21.25a6 6 0 0 1 6-5.963h.038a6 6 0 0 1 5.963 6.037c-.042 6.757-.013 13.737.018 21.127.021 5.112.042 10.414.042 15.966 0 6.394.182 12.876.541 19.263a6 6 0 0 1 -5.655 6.328q-.172.009-.343.009z" fill="#e9e9e9"/></g></svg>