<svg 
id="Layer_1" 
height="512" 
viewBox="0 0 512 512" 
width="512" 
xmlns="http://www.w3.org/2000/svg" 
data-name="Layer 1">
<path d="m374.59 216.33a23.175 23.175 0 0 1 -8.7 1.89c-11.31.56-26.86-3.86-37.83-9.95-32.91-18.3-30.23-57.42-50.79-65.2.55 10.46 5.11 
29.16-6.56 45.56-11.6 16.32-12.02 29.89-12.02 38.64 0 1.45-31.35-17.86-31.71-48.84-.1-8.15 6.92-32.08-.73-36.81-4.39-2.72-8.32 10.24-9.48 
12.02-7.47 11.48-18.16 27.85-35.72 40.28a140.761 140.761 0 0 1 -35.43 18.15c-3.84 1.32-7.37 2.35-10.49 3.17 0 0 31.34-26.24 31.71-59.59.23-21.52 
16.94-59.05 72.71-62.87-1.1-55.22 10.9-77.63 32.26-81.29 19.36-3.33 38.84 11.32 42.64 14.04 7.65 5.47 3.31 14.21-.55 17.49-11.48 
8.2-17.57-9.34-28.97-6.01-26.24 7.65-14.22 59.05-14.22 59.05 39.91 2.73 51.94 38.77 64.52 69.43 9.57 23.34 25.14 39.36 39.36 50.84z" 
fill="#619329"/><g fill="#97c447"><path d="m186.84 155.65c.23-21.52 16.94-59.05 72.71-62.87-1.034-51.928 9.518-74.837 28.543-80.428a39.627 
39.627 0 0 0 -16.283-.862c-21.36 3.66-33.36 26.07-32.26 81.29-55.77 3.82-72.48 41.35-72.71 62.87-.37 33.35-31.71 59.59-31.71 59.59 3.12-.82 
6.65-1.85 10.49-3.17a141.393 141.393 0 0 0 21.713-9.594c8.846-10.838 19.294-27.65 19.507-46.826z"/>
<path d="m348.06 208.27c-32.91-18.3-30.23-57.42-50.79-65.2.36 6.851 2.439 17.237.554 28.2 6.049 13.161 13.587 27.746 30.236 37 10.97 
6.09 26.52 10.51 37.83 9.95a26.167 26.167 0 0 0 6.793-1.139 86.748 86.748 0 0 1 -24.623-8.811z"/>
<path d="m246.98 178.43c-.1-8.15 6.92-32.08-.73-36.81-4.39-2.72-8.32 10.24-9.48 12.02-2.382 3.66-5.1 7.82-8.251 12.189-.764 5.119-1.574 9.795-1.539 12.6.36 30.98 31.71 50.29 31.71 48.84a69.52 69.52 0 0 1 1.441-15.517c-6.842-8.336-12.993-19.699-13.151-33.322z"/></g><path d="m365.89 218.22c25.09 37.56 45.72 82.9 45.72 127.14 0 101.11-91.6 155.64-155.61 155.64-106.06 0-155.61-67.65-155.61-168.76 0-42.63 21.6-86.11 45.23-120.17a140.761 140.761 0 0 0 35.43-18.15c17.56-12.43 28.25-28.8 35.72-40.28 1.16-1.78 5.09-14.74 9.48-12.02 7.65 4.73.63 28.66.73 36.81.36 30.98 31.71 50.29 31.71 48.84 0-8.75.42-22.32 12.02-38.64 11.67-16.4 7.11-35.1 6.56-45.56 20.56 7.78 17.88 46.9 50.79 65.2 10.97 6.09 26.52 10.51 37.83 9.95z" fill="#790691"/><path d="m327.706 428.637c-106.06 0-155.61-67.65-155.61-168.76 0-24.817 7.327-49.918 18.106-73.284a100.892 100.892 0 0 1 -9.152 7.327 140.761 140.761 0 0 1 -35.43 18.15c-23.63 34.06-45.23 77.54-45.23 120.17 0 101.11 49.55 168.76 155.61 168.76 48.547 0 112.953-31.375 141.242-90.64-23.272 12.077-47.969 18.277-69.536 18.277z" fill="#9d39b5"/><g opacity=".8"><path d="m356.125 418.341a6 6 0 0 1 -5.369-8.669 138.823 138.823 0 0 0 8.386-21.086 6 6 0 0 1 11.476 3.508 150.929 150.929 0 0 1 -9.114 22.914 6 6 0 0 1 -5.379 3.333z" fill="#e9e9e9"/></g><g opacity=".8"><path d="m369.748 374.761a6.007 6.007 0 0 1 -5.942-6.887 153.013 153.013 0 0 0 1.644-22.514 159.743 159.743 0 0 0 -4.644-37.12 6 6 0 1 1 11.669-2.8 171.773 171.773 0 0 1 4.975 39.921 164.948 164.948 0 0 1 -1.776 24.286 6 6 0 0 1 -5.926 5.114z" 
fill="#e9e9e9"/></g></svg>